<svg
xmlns="http://www.w3.org/2000/svg"
viewBox="0 0 300 700">

<!-- ==========================================
     PART 9.2A
     PREMIUM RAJANIGANDHA
     STEM + LEAVES
========================================== -->

<defs>

<linearGradient
id="stemGradient"
x1="0%"
y1="0%"
x2="0%"
y2="100%">

<stop offset="0%"
stop-color="#8EE36B"/>

<stop offset="50%"
stop-color="#49A94A"/>

<stop offset="100%"
stop-color="#1E6B2C"/>

</linearGradient>

<linearGradient
id="leafGradient"
x1="0%"
y1="0%"
x2="100%"
y2="100%">

<stop offset="0%"
stop-color="#A8F18A"/>

<stop offset="100%"
stop-color="#2E7D32"/>

</linearGradient>

<radialGradient
id="leafGlow">

<stop offset="0%"
stop-color="#ffffff"
stop-opacity=".25"/>

<stop offset="100%"
stop-color="#ffffff"
stop-opacity="0"/>

</radialGradient>

</defs>

<!-- ==========================
     MAIN STEM
========================== -->

<path
d="
M150 670

Q152 560
151 470

Q149 360
150 260

Q151 180
150 70
"

fill="none"
stroke="url(#stemGradient)"
stroke-width="8"
stroke-linecap="round"/>

<!-- Stem Highlight -->

<path
d="
M147 670

Q147 560
147 70
"

fill="none"
stroke="#D9FFD4"
stroke-width="2"
opacity=".35"/>

<!-- ==========================
     LEFT LEAF
========================== -->

<path
d="
M150 520

Q95 490
72 445

Q112 450
150 490

Z"

fill="url(#leafGradient)"/>

<path
d="
M150 492
Q115 470
85 452"

fill="none"
stroke="#E8FFE0"
stroke-width="1.4"
opacity=".55"/>

<!-- ==========================
     RIGHT LEAF
========================== -->

<path
d="
M150 430

Q205 402
228 360

Q188 365
150 400

Z"

fill="url(#leafGradient)"/>

<path
d="
M150 400
Q188 384
215 366"

fill="none"
stroke="#E8FFE0"
stroke-width="1.4"
opacity=".55"/>

<!-- ==========================
     LEFT SMALL LEAF
========================== -->

<path
d="
M150 305

Q112 288
90 252

Q118 258
150 286

Z"

fill="url(#leafGradient)"/>

<!-- ==========================
     RIGHT SMALL LEAF
========================== -->

<path
d="
M150 240

Q192 220
212 185

Q185 190
150 220

Z"

fill="url(#leaf
  <!-- ==========================================
     PART 9.2B
     RAJANIGANDHA FLOWER CLUSTER
========================================== -->

<defs>

<radialGradient id="budWhite">
    <stop offset="0%" stop-color="#FFFFFF"/>
    <stop offset="70%" stop-color="#FFFDF7"/>
    <stop offset="100%" stop-color="#ECECEC"/>
</radialGradient>

<linearGradient id="budTube"
x1="0%"
y1="0%"
x2="0%"
y2="100%">

    <stop offset="0%" stop-color="#F9FFF8"/>
    <stop offset="100%" stop-color="#E6F6E3"/>

</linearGradient>

</defs>

<!-- ======================================
     FLOWER CLUSTER
====================================== -->

<g id="flowerCluster">

<!-- Flower 1 -->

<g transform="translate(150 78)">

<rect
x="-2"
y="0"
width="4"
height="18"
rx="2"
fill="url(#budTube)"/>

<ellipse
cx="0"
cy="-5"
rx="9"
ry="11"
fill="url(#budWhite)"
stroke="#ECECEC"
stroke-width=".7"/>

</g>

<!-- Flower 2 -->

<g transform="translate(136 95) rotate(-18)">

<rect
x="-2"
y="0"
width="4"
height="18"
rx="2"
fill="url(#budTube)"/>

<ellipse
cx="0"
cy="-5"
rx="8"
ry="10"
fill="url(#budWhite)"
stroke="#ECECEC"
stroke-width=".7"/>

</g>

<!-- Flower 3 -->

<g transform="translate(164 100) rotate(18)">

<rect
x="-2"
y="0"
width="4"
height="18"
rx="2"
fill="url(#budTube)"/>

<ellipse
cx="0"
cy="-5"
rx="8"
ry="10"
fill="url(#budWhite)"
stroke="#ECECEC"
stroke-width=".7"/>

</g>

<!-- Flower 4 -->

<g transform="translate(128 122) rotate(-24)">

<rect
x="-2"
y="0"
width="4"
height="18"
rx="2"
fill="url(#budTube)"/>

<ellipse
cx="0"
cy="-5"
rx="8"
ry="10"
fill="url(#budWhite)"
stroke="#ECECEC"
stroke-width=".7"/>

</g>

<!-- Flower 5 -->

<g transform="translate(172 126) rotate(22)">

<rect
x="-2"
y="0"
width="4"
height="18"
rx="2"
fill="url(#budTube)"/>

<ellipse
cx="0"
cy="-5"
rx="8"
ry="10"
fill="url(#budWhite)"
stroke="#ECECEC"
stroke-width=".7"/>

</g>

<!-- Flower 6 -->

<g transform="translate(142 148) rotate(-12)">

<rect
x="-2"
y="0"
width="4"
height="18"
rx="2"
fill="url(#budTube)"/>

<ellipse
cx="0"
cy="-5"
rx="8"
ry="10"
fill="url(#budWhite)"
stroke="#ECECEC"
stroke-width=".7"/>

</g>

<!-- Flower 7 -->

<g transform="translate(158 154) rotate(14)">

<rect
x="-2"
y="0"
width="4"
height="18"
rx="2"
fill="url(#budTube)"/>

<ellipse
cx="0"
cy="-5"
rx="8"
ry="10"
fill="url(#budWhite)"
stroke="#ECECEC"
stroke-width=".7"/>

</g>

<!-- Flower 8 -->

<g transform="translate(130 175) rotate(-18)">

<rect
x="-2"
y="0"
width="4"
height="18"
rx="2"
fill="url(#budTube)"/>

<ellipse
cx="0"
cy="-5"
rx="8"
ry="10"
fill="url(#budWhite)"
stroke="#ECECEC"
stroke-width=".7"/>

</g>

<!-- Flower 9 -->

<g transform="translate(170 180) rotate(18)">

<rect
x="-2"
y="0"
width="4"
height="18"
rx="2"
fill="url(#budTube)"/>

<ellipse
cx="0"
cy="-5"
rx="8"
ry="10"
fill="url(#budWhite)"
stroke="#ECECEC"
stroke-width=".7"/>

</g>

<!-- Flower 10 -->

<g transform="translate(150 198)">

<rect
x="-2"
y="0"
width="4"
height="20"
rx="2"
fill="url(#budTube)"/>

<ellipse
cx="0"
cy="-5"
rx="9"
ry="11"
fill="url(#budWhite)"
stroke="#ECECEC"
stroke-width=".7"/>

</g>

</g>
  <!-- ==========================================
     PART 9.2C
     BLOOMING FLOWERS + DETAILS
========================================== -->

<defs>

<radialGradient
id="flowerCenter">

<stop offset="0%"
stop-color="#FFF8C4"/>

<stop offset="100%"
stop-color="#FFD95E"/>

</radialGradient>

</defs>

<!-- ==========================================
     BLOOMING FLOWERS
========================================== -->

<g id="openFlowers">

<!-- Left Bloom -->

<g transform="translate(122 118) rotate(-20)">

<ellipse
cx="0"
cy="-10"
rx="8"
ry="18"
fill="#FFFFFF"/>

<ellipse
cx="-9"
cy="-2"
rx="7"
ry="15"
transform="rotate(-40)"
fill="#FFFFFF"/>

<ellipse
cx="9"
cy="-2"
rx="7"
ry="15"
transform="rotate(40)"
fill="#FFFFFF"/>

<circle
cx="0"
cy="-2"
r="3"
fill="url(#flowerCenter)"/>

</g>

<!-- Right Bloom -->

<g transform="translate(178 142) rotate(18)">

<ellipse
cx="0"
cy="-10"
rx="8"
ry="18"
fill="#FFFFFF"/>

<ellipse
cx="-9"
cy="-2"
rx="7"
ry="15"
transform="rotate(-40)"
fill="#FFFFFF"/>

<ellipse
cx="9"
cy="-2"
rx="7"
ry="15"
transform="rotate(40)"
fill="#FFFFFF"/>

<circle
cx="0"
cy="-2"
r="3"
fill="url(#flowerCenter)"/>

</g>

<!-- Middle Bloom -->

<g transform="translate(150 170)">

<ellipse
cx="0"
cy="-12"
rx="9"
ry="20"
fill="#FFFFFF"/>

<ellipse
cx="-10"
cy="-3"
rx="7"
ry="15"
transform="rotate(-45)"
fill="#FFFFFF"/>

<ellipse
cx="10"
cy="-3"
rx="7"
ry="15"
transform="rotate(45)"
fill="#FFFFFF"/>

<circle
cx="0"
cy="-2"
r="3"
fill="url(#flowerCenter)"/>

</g>

</g>

<!-- ==========================================
     DEW DROPS
========================================== -->

<g opacity=".95">

<ellipse
cx="137"
cy="102"
rx="2.5"
ry="4"
fill="#FFFFFF"/>

<circle
cx="136"
cy="101"
r=".8"
fill="#BFEFFF"/>

<ellipse
cx="167"
cy="156"
rx="2.5"
ry="4"
fill="#FFFFFF"/>

<circle
cx="166"
cy="155"
r=".8"
fill="#BFEFFF"/>

<ellipse
cx="146"
cy="188"
rx="2.8"
ry="4.2"
fill="#FFFFFF"/>

<circle
cx="145"
cy="187"
r=".8"
fill="#BFEFFF"/>

</g>

<!-- ==========================================
     SPARKLES
========================================== -->

<g fill="#FFF8C4">

<circle cx="106" cy="74" r="1.6"/>
<circle cx="188" cy="90" r="1.5"/>
<circle cx="92" cy="150" r="1.3"/>
<circle cx="205" cy="182" r="1.5"/>
<circle cx="156" cy="42" r="1.5"/>

</g>

<!-- ==========================================
     FLOWER GLOW
========================================== -->

<ellipse
cx="150"
cy="135"
rx="72"
ry="115"
fill="#FFFFFF"
opacity=".05"/>

<!-- ==========================================
     SMALL PETALS
========================================== -->

<path
d="
M110 212
Q116 204
122 212
Q116 220
110 212
Z"

fill="#FFFFFF"
opacity=".8"/>

<path
d="
M185 222
Q191 214
197 222
Q191 230
185 222
Z"

fill="#FFFFFF"
opacity=".8"/>

<!-- ==========================================
     FLOWER HIGHLIGHT
========================================== -->

<path
d="
M145 56
Q150 42
155 56"

fill="none"
stroke="#FFFFFF"
stroke-width="2"
opacity=".65"/>
  <!-- ==========================================
     PART 9.2D
     FINAL PREMIUM FINISH
========================================== -->

<!-- ==========================
     LEAF HIGHLIGHTS
========================== -->

<path
d="
M150 492
Q116 470
84 452"
fill="none"
stroke="#F4FFF2"
stroke-width="1.4"
opacity=".40"/>

<path
d="
M150 400
Q186 382
214 364"
fill="none"
stroke="#F4FFF2"
stroke-width="1.4"
opacity=".40"/>

<path
d="
M150 286
Q124 270
98 256"
fill="none"
stroke="#F4FFF2"
stroke-width="1.2"
opacity=".35"/>

<path
d="
M150 220
Q182 204
206 190"
fill="none"
stroke="#F4FFF2"
stroke-width="1.2"
opacity=".35"/>

<!-- ==========================
     STEM SHINE
========================== -->

<line
x1="148"
y1="70"
x2="148"
y2="670"
stroke="#E8FFE2"
stroke-width="1.6"
opacity=".28"/>

<!-- ==========================
     MAGICAL STARS
========================== -->

<g>

<text
x="70"
y="90"
font-size="11"
fill="#FFF7B0"
opacity=".85">✨</text>

<text
x="225"
y="120"
font-size="10"
fill="#FFF7B0"
opacity=".80">✨</text>

<text
x="82"
y="250"
font-size="9"
fill="#FFFFFF"
opacity=".75">✦</text>

<text
x="214"
y="290"
font-size="9"
fill="#FFFFFF"
opacity=".75">✦</text>

<text
x="150"
y="28"
font-size="10"
text-anchor="middle"
fill="#FFF7B0"
opacity=".9">✨</text>

</g>

<!-- ==========================
     FLOATING PETALS
========================== -->

<path
d="
M62 330
Q68 320
74 330
Q68 340
62 330
Z"
fill="#FFFFFF"
opacity=".75"/>

<path
d="
M224 360
Q230 350
236 360
Q230 370
224 360
Z"
fill="#FFFFFF"
opacity=".75"/>

<!-- ==========================
     SOFT AURA
========================== -->

<ellipse
cx="150"
cy="320"
rx="120"
ry="310"
fill="#FFFFFF"
opacity=".02"/>

<!-- ==========================
     GROUND SHADOW
========================== -->

<ellipse
cx="150"
cy="682"
rx="40"
ry="7"
fill="#000000"
opacity=".12"/>

<!-- ==========================
     SIGNATURE
========================== -->

<text
x="150"
y="695"
text-anchor="middle"
font-size="11"
font-family="Poppins,Arial,sans-serif"
fill="#7CB342"
opacity=".85">

Premium Rajanigandha

</text>

<!-- ==========================================
     END OF RAJANIGANDHA SVG
========================================== -->

</svg>
