<svg
xmlns="http://www.w3.org/2000/svg"
viewBox="0 0 300 700">

<!-- ==========================================
     PART 9.3A
     PREMIUM ROSE
     STEM + LEAVES
========================================== -->

<defs>

<!-- Stem -->

<linearGradient
id="roseStem"
x1="0%"
y1="0%"
x2="0%"
y2="100%">

<stop offset="0%"
stop-color="#63C24A"/>

<stop offset="55%"
stop-color="#2E8B57"/>

<stop offset="100%"
stop-color="#1B5E20"/>

</linearGradient>

<!-- Leaf -->

<linearGradient
id="roseLeaf"
x1="0%"
y1="0%"
x2="100%"
y2="100%">

<stop offset="0%"
stop-color="#98F06F"/>

<stop offset="100%"
stop-color="#2F7D32"/>

</linearGradient>

<!-- Leaf Glow -->

<radialGradient id="leafGlow">

<stop offset="0%"
stop-color="#FFFFFF"
stop-opacity=".30"/>

<stop offset="100%"
stop-color="#FFFFFF"
stop-opacity="0"/>

</radialGradient>

</defs>

<!-- =====================================
     STEM
===================================== -->

<path
d="
M150 665

Q152 600
151 520

Q149 430
150 330

Q151 220
150 120
"

fill="none"
stroke="url(#roseStem)"
stroke-width="8"
stroke-linecap="round"/>

<!-- Stem Highlight -->

<path
d="
M148 665

Q148 120
148 120
"

fill="none"
stroke="#DFFFD4"
stroke-width="2"
opacity=".35"/>

<!-- =====================================
     THORNS
===================================== -->

<path
d="
M150 520
L162 510
L150 505
Z"

fill="#2E7D32"/>

<path
d="
M150 445
L138 436
L150 430
Z"

fill="#2E7D32"/>

<path
d="
M150 360
L162 352
L150 346
Z"

fill="#2E7D32"/>

<path
d="
M150 280
L138 272
L150 266
Z"

fill="#2E7D32"/>

<!-- =====================================
     LEFT LEAF
===================================== -->

<path
d="
M150 500

Q95 470
70 420

Q118 430
150 470

Z"

fill="url(#roseLeaf)"/>

<!-- Leaf Vein -->

<path
d="
M150 470
Q112 452
82 428"

fill="none"
stroke="#ECFFE8"
stroke-width="1.5"
opacity=".55"/>

<!-- =====================================
     RIGHT LEAF
===================================== -->

<path
d="
M150 395

Q205 370
230 318

Q184 328
150 364

Z"

fill="url(#roseLeaf)"/>

<path
d="
M150 364
Q188 344
216 322"

fill="none"
stroke="#ECFFE8"
stroke-width="1.5"
opacity=".55"/>

<!-- =====================================
     SMALL LEFT LEAF
===================================== -->

<path
d="
M150 285

Q116 266
95 235

Q120 240
150 264

Z"

fill="url(#roseLeaf)"/>

<!-- =====================================
     SMALL RIGHT LEAF
===================================== -->

<path
d="
M150 205

Q185 188
206 156

Q184 162
150 184

Z"

fill="url(#roseLeaf)"/>

<!-- =====================================
     FLOWER BASE
===================================== -->

<path
d="
M140 118

Q150 105
160 118

L156 140

Q150 148
144 140

Z"

fill="#4CAF50"/>

<!-- Sepals -->

<path
d="
M150 118
L134 102
L145 124
Z"

fill="#43A047"/>

<path
d="
M150 118
L166 102
L155 124
Z"

fill="#43A047"/>

<path
d="
M150 118
L150 96
L152 122
Z"

fill="#43A047"/>

<!-- Soft Aura -->

<ellipse
cx="150"
cy="350"
rx="95"
ry="300"
fill="url(#leafGlow)"
opacity=".22"/>
  <!-- ==========================================
     PART 9.3B
     PREMIUM RED ROSE BLOOM
========================================== -->

<defs>

<radialGradient
id="rosePetal">

<stop offset="0%"
stop-color="#FF9AAE"/>

<stop offset="35%"
stop-color="#FF4B6E"/>

<stop offset="70%"
stop-color="#D61F45"/>

<stop offset="100%"
stop-color="#8B001F"/>

</radialGradient>

<radialGradient
id="petalHighlight">

<stop offset="0%"
stop-color="#FFFFFF"
stop-opacity=".45"/>

<stop offset="100%"
stop-color="#FFFFFF"
stop-opacity="0"/>

</radialGradient>

</defs>

<!-- ======================================
     OUTER PETALS
====================================== -->

<g id="outer-petals">

<ellipse
cx="150"
cy="86"
rx="18"
ry="42"
fill="url(#rosePetal)"
transform="rotate(0 150 86)"/>

<ellipse
cx="132"
cy="94"
rx="18"
ry="42"
fill="url(#rosePetal)"
transform="rotate(-32 132 94)"/>

<ellipse
cx="168"
cy="94"
rx="18"
ry="42"
fill="url(#rosePetal)"
transform="rotate(32 168 94)"/>

<ellipse
cx="122"
cy="112"
rx="17"
ry="36"
fill="url(#rosePetal)"
transform="rotate(-55 122 112)"/>

<ellipse
cx="178"
cy="112"
rx="17"
ry="36"
fill="url(#rosePetal)"
transform="rotate(55 178 112)"/>

<ellipse
cx="138"
cy="126"
rx="17"
ry="32"
fill="url(#rosePetal)"
transform="rotate(-18 138 126)"/>

<ellipse
cx="162"
cy="126"
rx="17"
ry="32"
fill="url(#rosePetal)"
transform="rotate(18 162 126)"/>

</g>

<!-- ======================================
     INNER PETALS
====================================== -->

<g id="inner-petals">

<ellipse
cx="150"
cy="102"
rx="15"
ry="30"
fill="#FF5A78"/>

<ellipse
cx="142"
cy="110"
rx="12"
ry="24"
fill="#F63B64"
transform="rotate(-22 142 110)"/>

<ellipse
cx="158"
cy="110"
rx="12"
ry="24"
fill="#F63B64"
transform="rotate(22 158 110)"/>

<ellipse
cx="150"
cy="120"
rx="10"
ry="18"
fill="#C4123C"/>

</g>

<!-- ======================================
     ROSE CENTER
====================================== -->

<path
d="
M150 110

Q144 104
147 98

Q151 96
156 100

Q158 106
150 110

Z"

fill="#7A001B"/>

<!-- ======================================
     PETAL SHADOW
====================================== -->

<ellipse
cx="150"
cy="122"
rx="24"
ry="10"
fill="#7A001B"
opacity=".18"/>

<!-- ======================================
     HIGHLIGHTS
====================================== -->

<ellipse
cx="140"
cy="76"
rx="10"
ry="5"
fill="url(#petalHighlight)"
opacity=".55"/>

<ellipse
cx="165"
cy="92"
rx="8"
ry="4"
fill="url(#petalHighlight)"
opacity=".45"/>

<ellipse
cx="135"
cy="120"
rx="7"
ry="3"
fill="url(#petalHighlight)"
opacity=".35"/>

<!-- ======================================
     DEW DROPS
====================================== -->

<ellipse
cx="124"
cy="90"
rx="3"
ry="5"
fill="#FFFFFF"/>

<circle
cx="123"
cy="88"
r="1"
fill="#BFEFFF"/>

<ellipse
cx="172"
cy="112"
rx="3"
ry="5"
fill="#FFFFFF"/>

<circle
cx="171"
cy="110"
r="1"
fill="#BFEFFF"/>

<!-- ======================================
     SOFT GLOW
====================================== -->

<ellipse
cx="150"
cy="98"
rx="78"
ry="78"
fill="#FFFFFF"
opacity=".04"/>
  <!-- ==========================================
     PART 9.3C
     INNER PETALS + SEPALS + DETAILS
========================================== -->

<!-- ==========================
     INNER ROSE PETALS
========================== -->

<g id="innerRosePetals">

<path
d="
M150 108
Q140 96 148 84
Q160 90 158 106
Q155 114 150 108
Z"
fill="#A30028"/>

<path
d="
M143 118
Q132 108 138 96
Q150 102 148 118
Q145 122 143 118
Z"
fill="#B4002E"/>

<path
d="
M157 118
Q168 108 162 96
Q150 102 152 118
Q155 122 157 118
Z"
fill="#B4002E"/>

<path
d="
M150 126
Q144 120 148 112
Q156 116 154 126
Q152 130 150 126
Z"
fill="#7C001E"/>

</g>

<!-- ==========================
     SEPALS
========================== -->

<g id="roseSepals">

<path
d="
M138 118
L126 102
L136 126
Z"
fill="#2E7D32"/>

<path
d="
M162 118
L174 102
L164 126
Z"
fill="#2E7D32"/>

<path
d="
M150 114
L150 92
L154 120
Z"
fill="#388E3C"/>

<path
d="
M145 120
L134 110
L144 130
Z"
fill="#43A047"/>

<path
d="
M155 120
L166 110
L156 130
Z"
fill="#43A047"/>

</g>

<!-- ==========================
     PETAL SHADOWS
========================== -->

<ellipse
cx="150"
cy="112"
rx="26"
ry="12"
fill="#5C0016"
opacity=".15"/>

<ellipse
cx="150"
cy="100"
rx="18"
ry="8"
fill="#FFFFFF"
opacity=".05"/>

<!-- ==========================
     EXTRA DEW DROPS
========================== -->

<ellipse
cx="140"
cy="78"
rx="2.5"
ry="4"
fill="#FFFFFF"/>

<circle
cx="139"
cy="77"
r=".8"
fill="#BFEFFF"/>

<ellipse
cx="160"
cy="88"
rx="2.5"
ry="4"
fill="#FFFFFF"/>

<circle
cx="159"
cy="87"
r=".8"
fill="#BFEFFF"/>

<ellipse
cx="150"
cy="134"
rx="2.8"
ry="4.2"
fill="#FFFFFF"/>

<circle
cx="149"
cy="133"
r=".8"
fill="#BFEFFF"/>

<!-- ==========================
     SPARKLES
========================== -->

<text
x="108"
y="70"
font-size="10"
fill="#FFF6B0"
opacity=".85">✨</text>

<text
x="186"
y="84"
font-size="10"
fill="#FFF6B0"
opacity=".85">✨</text>

<text
x="120"
y="138"
font-size="8"
fill="#FFFFFF"
opacity=".75">✦</text>

<text
x="178"
y="128"
font-size="8"
fill="#FFFFFF"
opacity=".75">✦</text>

<!-- ==========================
     ROSE GLOW
========================== -->

<ellipse
cx="150"
cy="105"
rx="90"
ry="90"
fill="#FFCDD8"
opacity=".05"/>
  <!-- ==========================================
     PART 9.3D
     FINAL PREMIUM FINISH
========================================== -->

<!-- ==========================
     LEAF HIGHLIGHTS
========================== -->

<path
d="
M150 468
Q112 448
82 424"
fill="none"
stroke="#E8FFE8"
stroke-width="1.5"
opacity=".40"/>

<path
d="
M150 364
Q188 344
218 320"
fill="none"
stroke="#E8FFE8"
stroke-width="1.5"
opacity=".40"/>

<path
d="
M150 264
Q126 248
102 236"
fill="none"
stroke="#F3FFF0"
stroke-width="1.2"
opacity=".35"/>

<path
d="
M150 184
Q180 168
202 158"
fill="none"
stroke="#F3FFF0"
stroke-width="1.2"
opacity=".35"/>

<!-- ==========================
     STEM SHINE
========================== -->

<line
x1="148"
y1="120"
x2="148"
y2="665"
stroke="#E6FFE0"
stroke-width="1.5"
opacity=".25"/>

<!-- ==========================
     FLOATING PETALS
========================== -->

<path
d="
M72 270
Q79 260
86 270
Q79 280
72 270
Z"
fill="#FFD6DF"
opacity=".85"/>

<path
d="
M222 315
Q229 305
236 315
Q229 325
222 315
Z"
fill="#FFD6DF"
opacity=".85"/>

<path
d="
M108 540
Q114 532
120 540
Q114 548
108 540
Z"
fill="#FFE3EA"
opacity=".80"/>

<!-- ==========================
     MAGIC SPARKLES
========================== -->

<text
x="64"
y="82"
font-size="11"
fill="#FFF5A8"
opacity=".90">✨</text>

<text
x="228"
y="110"
font-size="10"
fill="#FFF5A8"
opacity=".85">✨</text>

<text
x="92"
y="190"
font-size="9"
fill="#FFFFFF"
opacity=".80">✦</text>

<text
x="206"
y="220"
font-size="9"
fill="#FFFFFF"
opacity=".80">✦</text>

<text
x="150"
y="42"
text-anchor="middle"
font-size="12"
fill="#FFF8C4"
opacity=".90">✨</text>

<!-- ==========================
     SOFT ROMANTIC AURA
========================== -->

<ellipse
cx="150"
cy="330"
rx="120"
ry="320"
fill="#FFFFFF"
opacity=".02"/>

<!-- ==========================
     GROUND SHADOW
========================== -->

<ellipse
cx="150"
cy="682"
rx="42"
ry="8"
fill="#000000"
opacity=".12"/>

<!-- ==========================
     SIGNATURE
========================== -->

<text
x="150"
y="695"
text-anchor="middle"
font-size="11"
font-family="Poppins,Arial,sans-serif"
fill="#C62828"
opacity=".85">

Premium Rose

</text>

<!-- ==========================================
     END OF ROSE SVG
========================================== -->

</svg>
